<svg width="202" height="52" fill="none" xmlns="http://www.w3.org/2000/svg"><path d="M43.002 16.442v20.869l-14.635 8.853-.994 3.523 18.068-10.57h.271v-24.3l-2.71 1.625z" fill="url(#paint0_linear_1021:6811)"/><path d="M20.687 35.14c-3.162-2.71-3.884-2.89-5.42-4.516-1.717-1.807-2.891-3.614-3.523-4.788-.181 1.174-.362 2.8.361 4.607.813 2.259 2.53 3.704 4.788 5.601 1.174.904 2.349 1.807 4.246 3.614.542.542.903.813 1.084 1.084 2.53 2.981 2.349 6.956 2.259 8.22 0 .633-.09 1.446-.362 2.53.633-.813 2.53-3.161 2.53-6.685 0-2.168-.633-3.794-1.175-4.788-.361-.632-.994-1.716-4.788-4.878z" fill="url(#paint1_linear_1021:6811)"/><path d="M24.21 35.774l2.079 2.258c.903-.722 1.897-1.626 2.439-2.077 2.258-1.898 3.975-3.343 4.788-5.602.632-1.806.542-3.523.361-4.607-.632 1.175-1.716 2.981-3.523 4.788-1.536 1.626-2.168 1.807-5.42 4.517-.271.361-.452.542-.723.723z" fill="url(#paint2_linear_1021:6811)"/><path d="M18.52 39.569c.542.994.813 1.897.903 2.44.18.812.723 2.8.18 5.148L2.71 37.582v-21.23L0 14.906v24.392l18.61 10.48 3.162 1.806c.27-.361.452-.632.542-.903.542-1.084 1.174-2.891.723-5.06-.633-3.432-3.524-5.42-4.517-6.052z" fill="url(#paint3_linear_1021:6811)"/><path d="M22.857 31.62a3.431 3.431 0 003.433-3.433 3.431 3.431 0 00-3.433-3.433 3.431 3.431 0 00-3.433 3.433 3.431 3.431 0 003.433 3.433z" fill="url(#paint4_linear_1021:6811)"/><path d="M10.93 12.559v10.84c2.53-.993 6.775-2.348 12.196-2.348a30.88 30.88 0 0111.563 2.258c0-3.614 0-7.137.09-10.75a24.966 24.966 0 00-11.563-3.072c-5.963-.09-10.299 2.078-12.286 3.072z" fill="#262625"/><path d="M45.621 13.009L22.855 0 .09 13.009l9.576 5.51v-6.504a26.851 26.851 0 0113.1-3.433c6.413 0 11.201 2.259 13.37 3.433-.09 2.168-.09 4.337-.181 6.505l9.666-5.511zm18.973.905h4.246v3.162h-8.131V5.332h8.04v3.162h-4.155v1.265h3.704v2.89h-3.704v1.265zm16.803-.361h1.265v5.782H79.14v-2.259h-5.782v2.259h-3.523v-5.782H71.1c.09-.09.09-.18.18-.361 0-.09.09-.271.09-.452 0-.18.091-.361.091-.542 0-.18.09-.452.09-.723 0-.27.09-.542.09-.813 0-.27.091-.632.091-1.084 0-.452.09-.813.09-1.174 0-.362.09-.813.09-1.446 0-.632.091-1.174.091-1.626h9.486v8.22h-.09zm-5.872-4.698c-.09 2.259-.361 3.885-.722 4.788h2.89V8.855h-2.168zm16.35-3.523h3.252v11.744h-3.794v-5.6l-3.975 5.6h-3.342V5.332h3.794v5.782l4.065-5.782zm11.836 0h3.974v11.744h-3.974v-4.155H101v4.155h-3.975V5.332H101v3.975h2.711V5.332zm11.202 3.433c1.265 0 2.349.361 3.162 1.174.813.813 1.265 1.807 1.265 2.982 0 1.264-.452 2.258-1.265 2.98-.813.814-1.897 1.175-3.162 1.175h-5.511V5.332h3.795v3.343h1.716v.09zm-.632 5.33c.361 0 .632-.09.903-.361.271-.181.361-.452.361-.813 0-.362-.09-.633-.361-.813-.271-.181-.542-.362-.903-.362h-1.084v2.259h1.084v.09zm6.052-8.763h3.975v11.744h-3.975V5.332zm13.642-.001h3.252v11.745h-3.794v-5.601l-3.975 5.6h-3.343V5.332h3.795v5.782l4.065-5.782zm-4.879-1.084V1.898h5.782v2.35h-5.782zM71.098 29.093h1.264v5.781H68.84v-2.349H60.8V20.781h3.975v8.221h2.349v-8.22h3.975v8.31zm6.503.361h4.246v3.071h-8.13V20.781h8.04v3.162h-4.156v1.355h3.704v2.891h-3.704v1.265zm12.467-8.582h3.975v11.744h-3.975V28.46h-2.71v4.065h-3.975V20.781h3.975v3.975h2.71v-3.884zm15.449 0v3.433h-3.162v8.22H98.47v-8.31h-3.16V20.78h10.208v.09zm6.686 0c1.355 0 2.439.451 3.252 1.264.813.813 1.265 1.898 1.265 3.162 0 1.265-.452 2.35-1.265 3.253-.813.813-1.988 1.264-3.252 1.264h-1.626v2.71h-3.975V20.781h5.601v.09zm-.723 5.691c.361 0 .723-.09.903-.361.271-.271.362-.542.362-.904 0-.361-.091-.632-.362-.903s-.542-.361-.903-.361h-.903v2.439h.903v.09zm-41.105 9.753v3.433h-3.162v8.312h-3.975v-8.312h-3.162v-3.433h10.299zm4.969 8.583h4.246v3.162h-8.131V36.316h8.04v3.162h-4.155v1.265h3.704v2.89h-3.704V44.9zm11.562 3.434c-1.897 0-3.433-.542-4.607-1.716-1.174-1.175-1.807-2.62-1.807-4.427 0-1.807.633-3.252 1.807-4.427 1.174-1.174 2.8-1.716 4.607-1.716 1.626 0 3.072.452 4.246 1.445 1.175.994 1.807 2.259 2.078 3.885h-3.975c-.18-.542-.452-.904-.903-1.265-.452-.361-.904-.452-1.355-.452-.723 0-1.265.272-1.717.723-.451.452-.632 1.084-.632 1.897s.18 1.446.632 1.898c.452.451.994.722 1.717.722.542 0 .993-.18 1.445-.542.452-.361.633-.813.813-1.355h4.065c-.18 1.626-.903 2.981-1.987 3.975-1.355.903-2.71 1.355-4.427 1.355zm16.804-12.017v3.433h-3.162v8.312h-3.884v-8.312h-3.162v-3.433h10.208zm8.944 0h3.253v11.745h-3.795v-5.602l-3.975 5.602h-3.342V36.316h3.794v5.782l4.065-5.782zm10.661 0c1.356 0 2.44.452 3.253 1.265.813.813 1.264 1.897 1.264 3.162s-.451 2.349-1.264 3.252c-.813.813-1.988 1.265-3.253 1.265h-1.626v2.8h-3.884V36.317h5.51zm-.722 5.692c.361 0 .722-.09.903-.362.271-.27.361-.542.361-.903s-.09-.632-.361-.903-.542-.362-.903-.362h-.904v2.44h.904v.09zm17.525 4.61c-1.265 1.174-2.891 1.716-4.878 1.716-1.988 0-3.614-.542-4.879-1.716-1.264-1.175-1.806-2.62-1.806-4.517 0-1.898.632-3.343 1.806-4.517 1.265-1.175 2.891-1.717 4.879-1.717 1.987 0 3.613.542 4.878 1.717 1.265 1.174 1.807 2.62 1.807 4.517 0 1.897-.632 3.432-1.807 4.517zm-6.775-2.53c.451.452 1.084.723 1.806.723.723 0 1.356-.271 1.807-.723.452-.452.723-1.084.723-1.897s-.271-1.446-.723-1.897c-.451-.452-1.084-.723-1.807-.723-.722 0-1.355.271-1.806.723-.452.452-.723 1.084-.723 1.897.09.723.271 1.355.723 1.897zm17.796-2.26l.813.542c.271.18.452.451.542.632.181.271.271.542.362.813.09.271.09.633.09.904 0 .993-.361 1.716-1.084 2.348-.723.633-1.626.904-2.8.904h-5.873V36.227h5.873c1.084 0 1.897.27 2.619.813.723.542.994 1.264.994 2.168 0 .542-.181.994-.452 1.445-.18.542-.542.904-1.084 1.175zm-2.348-1.265a.823.823 0 00.271-.633.823.823 0 00-.271-.632c-.181-.18-.362-.27-.723-.27h-1.265v1.715h1.265c.361.09.542 0 .723-.18zm-.543 4.607c.272 0 .543-.09.723-.27a.82.82 0 00.271-.633.82.82 0 00-.271-.633c-.18-.18-.451-.27-.723-.27h-1.355v1.806h1.355zm13.552 2.89l-.542-1.626h-3.704l-.542 1.627h-4.246l4.697-11.745h3.885l4.698 11.745H161.8zm-1.175-4.426l-1.174-3.252-1.175 3.252h2.349zm13.007-7.318h3.975v11.745h-3.975v-4.156h-2.71v4.156h-3.975V36.316h3.975v3.975h2.71v-3.975zm13.552 0h3.252v11.745h-3.794v-5.602l-3.975 5.602h-3.343V36.316h3.794v5.782l4.066-5.782zm9.125 0H202v11.745h-3.794v-3.253h-.632l-1.626 3.253h-4.337l2.078-3.885a4.835 4.835 0 01-1.355-1.355c-.361-.542-.452-1.265-.452-1.988 0-1.355.452-2.348 1.265-3.161.723-.994 1.807-1.356 3.162-1.356zm.903 5.601h.994V39.57h-.994c-.361 0-.632.09-.903.361-.271.18-.361.452-.361.813 0 .271.09.452.18.632.091.181.271.272.452.452.181 0 .361.09.632.09z" fill="#262625"/><defs><linearGradient id="paint0_linear_1021:6811" x1="38.254" y1="24.984" x2="36.108" y2="49.375" gradientUnits="userSpaceOnUse"><stop offset=".005" stop-color="#303AED"/><stop offset="1" stop-color="#008EFF"/></linearGradient><linearGradient id="paint1_linear_1021:6811" x1="20.249" y1="23.398" x2="18.104" y2="47.79" gradientUnits="userSpaceOnUse"><stop offset=".005" stop-color="#303AED"/><stop offset="1" stop-color="#008EFF"/></linearGradient><linearGradient id="paint2_linear_1021:6811" x1="29.794" y1="24.238" x2="27.648" y2="48.63" gradientUnits="userSpaceOnUse"><stop offset=".005" stop-color="#303AED"/><stop offset="1" stop-color="#008EFF"/></linearGradient><linearGradient id="paint3_linear_1021:6811" x1="12.287" y1="22.699" x2="10.141" y2="47.091" gradientUnits="userSpaceOnUse"><stop offset=".005" stop-color="#303AED"/><stop offset="1" stop-color="#008EFF"/></linearGradient><linearGradient id="paint4_linear_1021:6811" x1="23.221" y1="23.661" x2="21.076" y2="48.053" gradientUnits="userSpaceOnUse"><stop offset=".005" stop-color="#303AED"/><stop offset="1" stop-color="#008EFF"/></linearGradient></defs></svg>