<svg width="180" height="81" fill="none" xmlns="http://www.w3.org/2000/svg"><path fill-rule="evenodd" clip-rule="evenodd" d="M26.681 54.719l17.15 9.901a5.355 5.355 0 005.355 0l17.15-9.901a5.355 5.355 0 002.678-4.638V30.278a5.355 5.355 0 00-2.678-4.638l-17.15-9.901a5.355 5.355 0 00-5.355 0L26.68 25.64a5.355 5.355 0 00-2.678 4.638v19.803a5.355 5.355 0 002.678 4.638zm23.783-10.162c-3.698 3.341-3.2 5.887-.765 8.583h-.006a4.28 4.28 0 011.116 2.884 4.3 4.3 0 11-8.601 0 4.28 4.28 0 011.116-2.884h-.006c2.436-2.696 2.933-5.242-.765-8.583h.01a5.878 5.878 0 010-8.754h-.01c3.698-3.342 3.201-5.888.765-8.584h.006a4.28 4.28 0 01-1.116-2.883 4.3 4.3 0 018.601 0 4.28 4.28 0 01-1.116 2.883h.006c-2.436 2.696-2.933 5.242.765 8.584h-.01a5.877 5.877 0 010 8.754h.01zM37.9 44.47c-1.289-1.425-2.026-2.81-1.896-4.291-.13-1.482.607-2.867 1.896-4.292h-.007a4.28 4.28 0 001.117-2.884 4.3 4.3 0 00-8.602 0 4.28 4.28 0 001.117 2.884h-.007c1.288 1.425 2.025 2.81 1.895 4.292.13 1.481-.607 2.866-1.895 4.291h.007a4.28 4.28 0 00-1.117 2.884 4.3 4.3 0 008.602 0 4.28 4.28 0 00-1.117-2.883h.007zm21.702-4.291c-.13 1.481.607 2.866 1.895 4.291h-.007a4.28 4.28 0 011.117 2.884 4.3 4.3 0 01-8.601 0 4.28 4.28 0 011.116-2.883h-.007c1.289-1.426 2.026-2.81 1.896-4.292.13-1.482-.607-2.867-1.896-4.292h.007a4.28 4.28 0 01-1.116-2.884 4.3 4.3 0 118.6 0 4.28 4.28 0 01-1.116 2.884h.007c-1.288 1.425-2.025 2.81-1.895 4.292zm23.818-9.335v12.788c0 .845.33 1.338 1.01 1.338.47 0 .892-.164 1.314-.376l.164 2.605a7.647 7.647 0 01-2.769.54c-1.83 0-3.003-.892-3.003-3.309V30.844h3.285zm16.262 12.883c0 .704.188 1.244.845 1.244.469 0 .845-.164 1.244-.376l.14 2.605c-.61.282-1.619.54-2.675.54-1.384 0-2.252-.563-2.604-1.784a5.103 5.103 0 01-3.896 1.76c-3.426 0-5.749-2.628-5.749-6.312 0-3.73 2.323-6.383 5.75-6.383 1.595 0 2.839.446 3.66 1.268v-1.056h3.285v8.494zm-3.285-4.74c-.563-.587-1.643-1.103-2.746-1.103-2.041 0-3.332 1.408-3.332 3.52 0 2.065 1.314 3.473 3.332 3.473 1.08 0 2.089-.493 2.746-1.103v-4.787zm14.478 8.752c-1.666 0-2.863-.516-3.684-1.338v1.103h-3.285v-16.66h3.285v5.42c.845-.75 2.112-1.243 3.684-1.243 3.449 0 5.773 2.628 5.773 6.335 0 3.708-2.324 6.383-5.773 6.383zm-.915-9.856c-1.103 0-2.136.517-2.769 1.15v4.717c.563.563 1.619 1.126 2.769 1.126 2.018 0 3.332-1.408 3.332-3.52 0-2.088-1.314-3.473-3.332-3.473zm14.877-2.979c3.848 0 6.617 2.77 6.617 6.5 0 3.684-2.769 6.43-6.617 6.43-3.801 0-6.57-2.746-6.57-6.43 0-3.73 2.769-6.5 6.57-6.5zm0 9.926c2.065 0 3.449-1.502 3.449-3.426 0-1.97-1.384-3.496-3.449-3.496-2.018 0-3.403 1.525-3.403 3.496 0 1.924 1.385 3.426 3.403 3.426zm9.972-5.796c0-.727-.164-1.244-.844-1.244-.493 0-1.056.235-1.244.352l-.141-2.58c.164-.165 1.385-.54 2.675-.54 1.408 0 2.323.563 2.675 1.853.587-1.15 1.479-1.853 3.074-1.853 1.15 0 2.042.422 2.206.703l-.469 2.957c-.188-.258-1.127-.634-2.253-.634-1.572 0-2.182 1.361-2.394 2.793v6.664h-3.285v-8.471zm21.072 7.134c-1.267 1.032-3.074 1.666-5.162 1.666-4.623 0-6.688-2.816-6.688-6.43 0-3.66 2.535-6.5 6.477-6.5 3.731 0 5.491 2.276 5.491 5.116 0 .75-.118 1.924-.258 2.393h-8.331c.305 1.713 1.408 2.675 3.403 2.675 1.549 0 2.98-.633 3.825-1.267l1.243 2.347zm-3.027-6.711c0-.986-.751-1.83-2.417-1.83-1.76 0-2.698 1.055-2.933 2.252h5.327c.023-.117.023-.305.023-.422z" fill="#AEAEAE"/></svg>