<svg width="168" height="37" fill="none" xmlns="http://www.w3.org/2000/svg"><path d="M59.284 20.99l-.996 2.82h-.083a20.014 20.014 0 00-.97-2.765L51.893 7.631H46.66v21.377h3.461v-13.19c0-.83 0-1.77-.028-2.932-.027-.58-.083-1.023-.11-1.355h.083c.166.83.36 1.438.498 1.825l6.423 15.598h2.437l6.368-15.736c.138-.36.277-1.079.415-1.687h.083a199.15 199.15 0 00-.166 3.844v13.551h3.682V7.576h-5.039L59.284 20.99zm14.01-7.385h3.6v15.321h-3.6v-15.32zm1.827-6.471c-.609 0-1.107.221-1.522.608-.416.387-.637.885-.637 1.494 0 .58.221 1.078.636 1.465.416.388.914.581 1.523.581a2.21 2.21 0 001.523-.58c.415-.388.637-.886.637-1.466 0-.581-.222-1.079-.637-1.494-.36-.387-.886-.608-1.523-.608zm14.536 6.333a10.055 10.055 0 00-2.021-.221c-1.634 0-3.129.36-4.375 1.078-1.246.72-2.242 1.715-2.88 2.96-.664 1.271-.996 2.737-.996 4.424 0 1.466.332 2.766.97 3.955.636 1.162 1.522 2.102 2.712 2.738 1.136.636 2.465.968 3.96.968 1.716 0 3.184-.36 4.346-1.023l.028-.028v-3.319l-.138.11a6.193 6.193 0 01-1.745.913c-.636.222-1.218.332-1.716.332-1.44 0-2.575-.415-3.378-1.327-.83-.885-1.246-2.102-1.246-3.623 0-1.576.415-2.82 1.274-3.733.858-.913 1.993-1.383 3.377-1.383 1.163 0 2.354.387 3.434 1.161l.138.11v-3.511l-.028-.028c-.47-.194-.996-.415-1.716-.553zm11.877-.11a3.8 3.8 0 00-2.436.857c-.61.497-1.024 1.216-1.384 2.074h-.028v-2.683h-3.6v15.321h3.6V21.1c0-1.328.277-2.434.886-3.236.61-.83 1.384-1.244 2.326-1.244.332 0 .664.083 1.079.138.388.11.665.221.859.36l.138.11v-3.595l-.083-.028c-.249-.166-.747-.249-1.357-.249zm9.802-.084c-2.52 0-4.541.747-5.953 2.213-1.44 1.465-2.132 3.484-2.132 6.029 0 2.378.72 4.314 2.104 5.724 1.385 1.383 3.267 2.102 5.621 2.102 2.464 0 4.43-.747 5.842-2.24 1.439-1.493 2.132-3.485 2.132-5.946 0-2.434-.665-4.37-2.022-5.78-1.301-1.41-3.211-2.102-5.592-2.102zm2.879 11.782c-.664.857-1.717 1.272-3.018 1.272-1.301 0-2.353-.415-3.101-1.328-.747-.857-1.107-2.102-1.107-3.678 0-1.632.387-2.876 1.107-3.761.748-.885 1.772-1.327 3.074-1.327 1.273 0 2.27.414 2.99 1.272.72.857 1.107 2.101 1.107 3.733-.055 1.66-.36 2.96-1.052 3.817zm12.764-5.089c-1.135-.47-1.855-.83-2.188-1.134-.276-.277-.415-.664-.415-1.161 0-.415.166-.83.582-1.107.415-.276.886-.415 1.578-.415.609 0 1.246.111 1.855.277.609.166 1.163.415 1.606.747l.138.11V13.91l-.083-.027a9.977 9.977 0 00-1.634-.47 11.102 11.102 0 00-1.772-.166c-1.716 0-3.128.415-4.236 1.327-1.107.857-1.633 2.019-1.633 3.374 0 .72.111 1.355.36 1.88a4.194 4.194 0 001.107 1.439c.499.387 1.218.83 2.215 1.244.831.36 1.468.636 1.855.858.388.22.637.47.831.663.138.222.221.498.221.858 0 1.023-.775 1.52-2.353 1.52-.609 0-1.246-.11-1.994-.359a7.723 7.723 0 01-2.021-1.023l-.138-.11v3.511l.083.028c.526.25 1.163.415 1.938.609.775.138 1.467.248 2.077.248 1.855 0 3.377-.414 4.457-1.327 1.108-.885 1.689-2.019 1.689-3.485 0-1.023-.277-1.935-.886-2.627a11.238 11.238 0 00-3.239-1.908zm13.622-6.693c-2.52 0-4.541.747-5.953 2.213-1.412 1.465-2.132 3.484-2.132 6.029 0 2.378.72 4.314 2.104 5.724 1.385 1.383 3.267 2.102 5.621 2.102 2.464 0 4.43-.747 5.842-2.24 1.439-1.493 2.132-3.485 2.132-5.946 0-2.434-.665-4.37-2.022-5.78-1.301-1.41-3.211-2.102-5.592-2.102zm2.851 11.782c-.664.857-1.716 1.272-3.017 1.272-1.329 0-2.354-.415-3.101-1.328-.748-.857-1.108-2.102-1.108-3.678 0-1.632.388-2.876 1.108-3.761.747-.885 1.772-1.327 3.073-1.327 1.246 0 2.27.414 2.99 1.272.72.857 1.107 2.101 1.107 3.733 0 1.66-.359 2.96-1.052 3.817zm24.005-8.49v-2.96h-3.627V9.07l-.111.027-3.433 1.024-.083.027v3.457h-5.427V11.67c0-.885.222-1.576.609-2.018.388-.443.969-.664 1.689-.664.499 0 1.025.11 1.606.36l.139.082V6.304l-.083-.027c-.499-.166-1.163-.277-2.022-.277a6.49 6.49 0 00-2.879.664 4.804 4.804 0 00-1.966 1.963c-.471.83-.72 1.77-.72 2.849v2.13h-2.519v2.93h2.519v12.39h3.627V16.564h5.427v7.882c0 3.236 1.523 4.867 4.568 4.867.499 0 1.025-.082 1.523-.165.526-.111.914-.25 1.135-.36l.028-.028v-2.959l-.139.11a2.335 2.335 0 01-.747.333c-.277.083-.526.11-.72.11-.72 0-1.218-.166-1.578-.58-.332-.388-.498-1.024-.498-1.964v-7.246h3.682zM0 0h16.972v16.953H0V0zm18.744 0h16.972v16.953H18.744V0zM0 18.723h16.972v16.952H0V18.723zm19 .441h16.972v16.953H19V19.164z" fill="#AEAEAE"/></svg>