<svg width="137" height="45" fill="none" xmlns="http://www.w3.org/2000/svg"><path d="M132.29 27.353l3.794 2.529c-1.232 1.813-4.176 4.925-9.268 4.925-6.322 0-11.031-4.892-11.031-11.115 0-6.622 4.759-11.114 10.499-11.114 5.773 0 8.602 4.592 9.517 7.071l.499 1.265-14.875 6.156c1.132 2.23 2.896 3.36 5.391 3.36 2.496 0 4.226-1.23 5.474-3.077zm-11.663-4.01l9.933-4.126c-.549-1.381-2.18-2.363-4.126-2.363-2.48 0-5.924 2.196-5.807 6.489zM108.614 1.248h4.792v32.544h-4.792V1.248zm-7.553 12.196h4.625v19.767c0 8.202-4.842 11.58-10.565 11.58-5.391 0-8.635-3.627-9.85-6.572l4.243-1.764c.765 1.814 2.612 3.96 5.607 3.96 3.677 0 5.94-2.28 5.94-6.539v-1.597h-.167c-1.098 1.33-3.194 2.529-5.856 2.529-5.558 0-10.649-4.842-10.649-11.081 0-6.273 5.091-11.165 10.649-11.165 2.645 0 4.758 1.182 5.856 2.48h.167v-1.598zm.332 10.283c0-3.927-2.612-6.789-5.94-6.789-3.36 0-6.189 2.862-6.189 6.789 0 3.876 2.829 6.688 6.19 6.688 3.327.017 5.939-2.812 5.939-6.688zm-43.309-.084c0 6.405-4.992 11.114-11.115 11.114s-11.114-4.725-11.114-11.114c0-6.44 4.991-11.131 11.114-11.131 6.123 0 11.115 4.692 11.115 11.13zm-4.859 0c0-3.994-2.895-6.739-6.256-6.739-3.36 0-6.256 2.745-6.256 6.739 0 3.96 2.895 6.738 6.256 6.738s6.256-2.779 6.256-6.738zm29.134.049c0 6.406-4.992 11.115-11.115 11.115S60.13 30.098 60.13 23.692c0-6.439 4.991-11.114 11.114-11.114 6.123 0 11.115 4.659 11.115 11.114zm-4.875 0c0-3.993-2.895-6.738-6.256-6.738s-6.256 2.745-6.256 6.738c0 3.96 2.895 6.739 6.256 6.739 3.377 0 6.256-2.795 6.256-6.739zm-59.897 6.24c-6.972 0-12.43-5.624-12.43-12.595 0-6.971 5.458-12.595 12.43-12.595 3.76 0 6.505 1.48 8.535 3.377l3.344-3.344C26.638 2.063 22.861 0 17.586 0 8.037 0 0 7.787 0 17.337s8.036 17.337 17.587 17.337c5.157 0 9.05-1.697 12.096-4.858 3.127-3.128 4.093-7.52 4.093-11.081a18.74 18.74 0 00-.283-3.112H17.586v4.626h11.331c-.333 2.895-1.248 4.875-2.595 6.222-1.631 1.648-4.21 3.461-8.735 3.461z" fill="#AEAEAE"/></svg>