<svg width="119" height="34" fill="none" xmlns="http://www.w3.org/2000/svg"><path d="M16.363 31.808c-1.79.333-3.612.432-5.496.698L5.119 14.709v18.56c-1.79.2-3.423.465-5.119.731V0h4.774l6.532 19.291V0h5.057v31.808zm9.893-19.357c1.947 0 4.93-.1 6.721-.1v5.313c-2.23 0-4.836 0-6.721.1v7.902c2.952-.2 5.905-.465 8.888-.565v5.113l-13.913 1.163V0h13.913v5.313h-8.888v7.138zm27.575-7.138h-5.214V29.75c-1.695 0-3.391 0-5.024.066V5.313h-5.214V0h15.452v5.313zm8.166 6.773h6.878v5.312h-6.878v12.053h-4.931V0h14.039v5.313h-9.108v6.773zM79.27 24.803c2.859.066 5.748.299 8.543.464v5.247c-4.491-.3-8.982-.598-13.568-.698V0h5.025v24.803zm12.783 6.076c1.602.1 3.298.2 4.93.398V0h-4.93v30.879zM119 0l-6.376 16.17L119 34c-1.885-.266-3.769-.63-5.653-.963l-3.612-9.828-3.674 9.031c-1.822-.332-3.581-.432-5.402-.697l6.469-15.572L101.287 0h5.401l3.298 8.932L113.504 0H119z" fill="#AEAEAE"/></svg>