<svg width="117" height="35" fill="none" xmlns="http://www.w3.org/2000/svg"><path fill-rule="evenodd" clip-rule="evenodd" d="M72.137 27.37C65.38 32.347 55.586 35 47.153 35c-11.824 0-22.468-4.368-30.52-11.633-.634-.572-.067-1.35.693-.905 8.69 5.05 19.436 8.089 30.536 8.089 7.486 0 15.72-1.547 23.293-4.758 1.144-.485 2.1.749.982 1.578z" fill="#AEAEAE"/><path fill-rule="evenodd" clip-rule="evenodd" d="M74.946 24.16c-.86-1.103-5.71-.521-7.886-.263-.663.08-.764-.496-.167-.91 3.862-2.715 10.199-1.932 10.938-1.022.739.916-.192 7.26-3.822 10.289-.556.465-1.088.217-.84-.4.815-2.032 2.642-6.587 1.777-7.694zM67.212 3.822V1.183c0-.4.304-.667.668-.667h11.83c.379 0 .683.273.683.667v2.26c-.006.379-.325.874-.891 1.658l-6.13 8.741c2.278-.055 4.682.283 6.747 1.446.466.263.592.647.628 1.026v2.816c0 .385-.425.835-.87.602-3.64-1.906-8.474-2.113-12.498.02-.41.223-.84-.222-.84-.607v-2.674c0-.43.005-1.163.435-1.815l7.102-10.172h-6.18c-.38 0-.684-.268-.684-.662zm-43.15 16.467h-3.598a.68.68 0 01-.643-.612V1.23c0-.369.309-.662.693-.662h3.356c.35.015.628.283.653.617v2.411h.066c.875-2.33 2.52-3.417 4.737-3.417 2.253 0 3.66 1.087 4.672 3.417.87-2.33 2.85-3.417 4.97-3.417 1.509 0 3.159.622 4.166 2.017 1.14 1.552.906 3.807.906 5.784l-.005 11.643a.68.68 0 01-.693.667h-3.594a.684.684 0 01-.648-.668V9.845c0-.779.071-2.72-.101-3.458-.268-1.239-1.073-1.587-2.116-1.587-.87 0-1.781.58-2.15 1.511-.37.93-.335 2.488-.335 3.534v9.778a.68.68 0 01-.693.667H30.11a.68.68 0 01-.648-.668l-.005-9.777c0-2.058.34-5.086-2.217-5.086-2.586 0-2.485 2.953-2.485 5.086v9.778a.68.68 0 01-.694.667M90.576.178c5.34 0 8.23 4.58 8.23 10.404 0 5.627-3.194 10.091-8.23 10.091-5.244 0-8.098-4.58-8.098-10.288 0-5.743 2.89-10.207 8.098-10.207zm.03 3.766c-2.652 0-2.819 3.61-2.819 5.86 0 2.254-.035 7.067 2.789 7.067 2.789 0 2.92-3.882 2.92-6.248 0-1.558-.065-3.418-.536-4.894-.405-1.284-1.21-1.785-2.354-1.785zm15.125 16.345h-3.584a.684.684 0 01-.648-.668l-.005-18.452c.031-.34.329-.602.694-.602h3.335a.689.689 0 01.643.516v2.82h.066c1.007-2.522 2.419-3.725 4.904-3.725 1.615 0 3.189.581 4.201 2.174.942 1.476.942 3.958.942 5.743v11.612c-.041.324-.339.582-.694.582h-3.608c-.329-.025-.603-.268-.638-.582V9.688c0-2.017.233-4.97-2.253-4.97-.875 0-1.68.587-2.08 1.477-.506 1.127-.572 2.25-.572 3.493v9.935a.692.692 0 01-.703.667m-47.948-8.814c0 1.4.035 2.568-.674 3.812-.572 1.011-1.483 1.633-2.49 1.633-1.382 0-2.191-1.051-2.191-2.604 0-3.063 2.748-3.62 5.355-3.62v.78zm3.629 8.761a.752.752 0 01-.85.087c-1.195-.991-1.413-1.452-2.066-2.397-1.974 2.012-3.376 2.614-5.932 2.614-3.032 0-5.385-1.866-5.385-5.602 0-2.917 1.579-4.904 3.836-5.874 1.954-.86 4.682-1.011 6.768-1.25v-.464c0-.855.065-1.866-.44-2.604-.436-.662-1.276-.935-2.02-.935-1.372 0-2.592.703-2.89 2.159-.061.323-.299.642-.628.657l-3.487-.374c-.294-.066-.623-.304-.537-.754.8-4.226 4.626-5.5 8.048-5.5 1.751 0 4.039.465 5.42 1.79 1.752 1.633 1.585 3.812 1.585 6.183v5.601c0 1.684.698 2.422 1.356 3.332.228.324.279.713-.015.955-.734.612-2.04 1.75-2.758 2.387l-.005-.01m-50.808-8.762c0 1.4.035 2.568-.673 3.812-.572 1.011-1.478 1.633-2.49 1.633-1.382 0-2.187-1.051-2.187-2.604 0-3.063 2.748-3.62 5.35-3.62v.78zm3.629 8.761a.752.752 0 01-.85.087c-1.195-.991-1.407-1.452-2.065-2.397-1.974 2.012-3.371 2.614-5.933 2.614C2.36 20.54 0 18.675 0 14.939c0-2.917 1.584-4.904 3.837-5.874 1.953-.86 4.682-1.011 6.767-1.25v-.464c0-.855.066-1.866-.435-2.604-.44-.662-1.28-.935-2.02-.935-1.372 0-2.596.703-2.895 2.159-.06.323-.299.642-.623.657L1.14 6.254C.845 6.188.52 5.95.602 5.5 1.407 1.274 5.23 0 8.65 0c1.752 0 4.04.465 5.421 1.79 1.751 1.633 1.584 3.812 1.584 6.183v5.601c0 1.684.699 2.422 1.357 3.332.233.324.283.713-.01.955-.734.612-2.04 1.75-2.759 2.387l-.01-.01" fill="#AEAEAE"/></svg>