<svg width="228" height="59" fill="none" xmlns="http://www.w3.org/2000/svg"><path d="M48.54 19.09v23.554l-16.52 9.993-1.121 3.977 20.394-11.93h.306v-27.43l-3.06 1.835zM23.351 40.196c-3.569-3.059-4.385-3.263-6.118-5.098-1.938-2.04-3.263-4.08-3.977-5.405-.204 1.326-.408 3.161.408 5.2.918 2.55 2.855 4.181 5.404 6.323 1.326 1.02 2.651 2.04 4.793 4.078.612.612 1.02.918 1.223 1.224 2.856 3.365 2.652 7.852 2.55 9.28 0 .713-.102 1.63-.408 2.854.714-.917 2.855-3.569 2.855-7.545 0-2.447-.714-4.283-1.326-5.405-.407-.713-1.121-1.937-5.404-5.506zm3.976.714l2.345 2.55c1.02-.816 2.142-1.836 2.754-2.346 2.549-2.141 4.486-3.773 5.404-6.322.714-2.04.612-3.977.408-5.2-.714 1.325-1.938 3.365-3.977 5.404-1.733 1.836-2.447 2.04-6.118 5.098-.306.408-.51.612-.816.816z" fill="#fff"/><path d="M20.904 45.193c.611 1.122.917 2.141 1.02 2.753.203.918.815 3.161.203 5.812L3.06 42.95V18.988L0 17.356v27.53l21.006 11.83 3.568 2.039c.306-.408.51-.714.612-1.02.612-1.224 1.326-3.263.816-5.71-.714-3.875-3.977-6.118-5.098-6.832zm4.893-8.973a3.873 3.873 0 003.875-3.874 3.873 3.873 0 00-3.875-3.875 3.873 3.873 0 00-3.875 3.875 3.873 3.873 0 003.875 3.874zM12.34 14.704v12.237c2.855-1.122 7.648-2.652 13.766-2.652a34.85 34.85 0 0113.051 2.55c0-4.08 0-8.056.103-12.135-2.244-1.223-6.832-3.365-13.052-3.466-6.73-.102-11.625 2.345-13.868 3.466z" fill="#fff"/><path d="M51.495 15.215L25.799.53.103 15.215l10.808 6.22v-7.342a30.307 30.307 0 0114.786-3.875c7.24 0 12.644 2.55 15.09 3.875-.101 2.447-.101 4.895-.203 7.342l10.91-6.22zm21.41 1.019h4.793v3.569H68.52V6.547h9.075v3.569h-4.69v1.427h4.18v3.263h-4.18v1.428zm18.967-.408H93.3v6.526h-3.977v-2.55h-6.526v2.55H78.82v-6.526h1.428c.102-.102.102-.204.204-.408 0-.102.102-.306.102-.51 0-.204.102-.408.102-.611 0-.205.102-.51.102-.816 0-.306.102-.612.102-.918 0-.306.102-.714.102-1.224s.102-.917.102-1.325c0-.408.102-.918.102-1.632 0-.713.102-1.325.102-1.835h10.706v9.279h-.102zm-6.628-5.302c-.102 2.549-.408 4.384-.815 5.404h3.263v-5.404h-2.448zM103.7 6.547h3.671v13.256h-4.282V13.48l-4.487 6.322h-3.773V6.547h4.283v6.526l4.588-6.526zm13.357 0h4.487v13.256h-4.487v-4.69h-3.059v4.69h-4.486V6.547h4.486v4.487h3.059V6.546zm12.643 3.875c1.427 0 2.651.407 3.568 1.325.918.918 1.428 2.04 1.428 3.365 0 1.428-.51 2.55-1.428 3.365-.917.918-2.141 1.326-3.568 1.326h-6.221V6.547h4.283v3.773h1.938v.102zm-.714 6.016c.408 0 .714-.102 1.019-.408.306-.204.408-.51.408-.918 0-.408-.102-.714-.408-.918-.305-.203-.611-.407-1.019-.407h-1.224v2.549h1.224v.102zm6.832-9.891h4.486v13.256h-4.486V6.547zm15.399 0h3.671v13.256h-4.283V13.48l-4.486 6.323h-3.773V6.547h4.282v6.526l4.589-6.526zm-5.506-1.224V2.672h6.526v2.651h-6.526zM80.247 33.364h1.427v6.526h-3.976v-2.652h-9.075V23.982h4.486v9.28h2.651v-9.28h4.487v9.382zm7.34.407h4.793v3.467h-9.177V23.982h9.075v3.57h-4.69v1.529h4.18v3.263h-4.18v1.427zm14.073-9.687h4.487V37.34h-4.487v-4.69h-3.059v4.588h-4.486V23.982H98.6v4.487h3.059v-4.385zm17.439 0v3.875h-3.569v9.28h-4.385v-9.382h-3.569v-3.875h11.523v.102zm7.541 0c1.529 0 2.753.51 3.671 1.428.917.918 1.427 2.141 1.427 3.569 0 1.427-.51 2.651-1.427 3.67-.918.918-2.244 1.428-3.671 1.428h-1.836v3.06h-4.486V23.981h6.322v.102zm-.816 6.424c.408 0 .816-.102 1.02-.407.306-.306.408-.612.408-1.02 0-.408-.102-.714-.408-1.02-.306-.306-.612-.408-1.02-.408h-1.02v2.753h1.02v.102zM79.43 41.522v3.874h-3.568v9.381h-4.487v-9.38h-3.569v-3.875h11.625zm5.608 9.687h4.793v3.568h-9.178V41.522h9.075v3.568h-4.69v1.428h4.18v3.263h-4.18v1.428zm13.055 3.875c-2.142 0-3.875-.611-5.2-1.937-1.326-1.325-2.04-2.957-2.04-4.996 0-2.04.714-3.671 2.04-4.997 1.325-1.325 3.16-1.937 5.2-1.937 1.835 0 3.467.51 4.792 1.631 1.326 1.122 2.04 2.55 2.346 4.385h-4.487c-.204-.612-.51-1.02-1.02-1.428-.51-.407-1.02-.51-1.53-.51-.815 0-1.427.306-1.937.816s-.713 1.224-.713 2.142c0 .917.204 1.631.713 2.141.51.51 1.122.816 1.938.816.612 0 1.121-.204 1.631-.612.51-.408.714-.918.918-1.53h4.589c-.204 1.836-1.02 3.365-2.244 4.487-1.529 1.02-3.059 1.53-4.996 1.53zm18.965-13.562v3.874h-3.569v9.381h-4.385v-9.38h-3.569v-3.875h11.523zm10.094 0h3.67v13.255h-4.282v-6.322l-4.487 6.322h-3.773V41.522h4.283v6.526l4.589-6.526zm12.031 0c1.529 0 2.753.51 3.671 1.427.918.918 1.427 2.141 1.427 3.569s-.509 2.651-1.427 3.67c-.918.918-2.243 1.428-3.671 1.428h-1.835v3.161h-4.385V41.522h6.22zm-.816 6.424c.408 0 .816-.102 1.02-.408.306-.306.408-.612.408-1.02 0-.408-.102-.714-.408-1.02-.306-.306-.612-.408-1.02-.408h-1.019v2.753h1.019v.102zm19.783 5.2c-1.428 1.325-3.263 1.937-5.507 1.937-2.243 0-4.078-.611-5.506-1.937s-2.039-2.957-2.039-5.099c0-2.14.713-3.772 2.039-5.098 1.428-1.325 3.263-1.937 5.506-1.937 2.244 0 4.079.611 5.507 1.937 1.427 1.326 2.039 2.957 2.039 5.099 0 2.14-.714 3.874-2.039 5.098zm-7.648-2.855c.51.51 1.224.816 2.039.816.816 0 1.53-.306 2.04-.816s.815-1.224.815-2.141c0-.918-.305-1.632-.815-2.142s-1.224-.816-2.04-.816c-.815 0-1.529.306-2.039.816-.51.51-.816 1.224-.816 2.142.102.815.306 1.529.816 2.14zm20.09-2.549l.918.612c.305.204.509.51.611.714.204.306.306.611.408.917.102.306.102.714.102 1.02 0 1.122-.408 1.937-1.223 2.651-.816.714-1.836 1.02-3.161 1.02h-6.628V41.42h6.628c1.223 0 2.141.306 2.957.918.815.611 1.121 1.427 1.121 2.447 0 .612-.204 1.122-.51 1.631-.203.612-.611 1.02-1.223 1.326zm-2.651-1.428c.204-.203.306-.407.306-.713s-.102-.51-.306-.714c-.204-.204-.408-.306-.816-.306h-1.428v1.937h1.428c.408.102.612 0 .816-.204zm-.612 5.2c.306 0 .612-.101.816-.305.204-.204.306-.408.306-.714s-.102-.51-.306-.714c-.204-.204-.51-.306-.816-.306h-1.53v2.04h1.53zm15.293 3.263l-.612-1.835h-4.181l-.612 1.835h-4.792l5.302-13.255h4.385l5.302 13.255h-4.792zm-1.326-4.996l-1.326-3.67-1.325 3.67h2.651zm14.683-8.259h4.487v13.255h-4.487v-4.69h-3.059v4.69h-4.486V41.522h4.486v4.486h3.059v-4.486zm15.298 0h3.67v13.255h-4.282v-6.322l-4.487 6.322h-3.773V41.522h4.283v6.526l4.589-6.526zm10.299 0H228v13.255h-4.283v-3.67h-.714l-1.835 3.67h-4.895l2.346-4.384a5.462 5.462 0 01-1.53-1.53c-.408-.612-.51-1.427-.51-2.243 0-1.53.51-2.651 1.428-3.569.816-1.122 2.039-1.53 3.569-1.53zm1.019 6.322h1.122v-2.652h-1.122c-.407 0-.713.102-1.019.408-.306.204-.408.51-.408.918 0 .306.102.51.204.714.102.204.306.306.51.51.204 0 .408.102.713.102z" fill="#fff"/></svg>